# xmcd
#
# Track frame offsets:
#	150
#	12080
#	25036
#	39298
#	49711
#	60203
#	73097
#	83507
#	94772
#	105632
#	116228
#	126528
#	136521
#	146721
#	158683
#	169997
#	181619
#	191161
#	203779
#	215058
#
# Disc length: 3019 seconds
#
# Revision: 0
# Processed by: cddbd v1.5.2PL0 Copyright (c) Steve Scherf et al.
# Submitted via: EZCDAudioConverter 3.1.7.1
#
DISCID=0f0bc914
DTITLE=Willie Nelson - The Legend Begins
DYEAR=1900
DGENRE=Country
TTITLE0=Hello Walls
TTITLE1=Mr. Record Man
TTITLE2=Funny How Time Slips Away
TTITLE3=Touch Me
TTITLE4=Country Willie
TTITLE5=Take Me As I am (or let me go)
TTITLE6=Right or Wrong
TTITLE7=I'll Walk Alone
TTITLE8=Where My House Lives
TTITLE9=Seasons of My Heart
TTITLE10=Crazy
TTITLE11=Night Life
TTITLE12=The Part Where I Cry
TTITLE13=Three Days
TTITLE14=Am I Blue
TTITLE15=Willingly (with Shirley Collie)
TTITLE16=There'll be no Teardrops Tonight
TTITLE17=Half a Man
TTITLE18=Home Motel
TTITLE19=One Step Beyond
EXTD=
EXTT0=
EXTT1=
EXTT2=
EXTT3=
EXTT4=
EXTT5=
EXTT6=
EXTT7=
EXTT8=
EXTT9=
EXTT10=
EXTT11=
EXTT12=
EXTT13=
EXTT14=
EXTT15=
EXTT16=
EXTT17=
EXTT18=
EXTT19=
PLAYORDER=
